<svg xmlns="http://www.w3.org/2000/svg" xmlns:xlink="http://www.w3.org/1999/xlink" width="500" zoomAndPan="magnify" viewBox="0 0 375 374.999991" height="500" preserveAspectRatio="xMidYMid meet" version="1.0"><defs><g/><clipPath id="2e5afdffd1"><path d="M 57 147 L 96 147 L 96 225.894531 L 57 225.894531 Z M 57 147 " clip-rule="nonzero"/></clipPath></defs><rect x="-37.5" width="450" fill="#ffffff" y="-37.499999" height="449.999989" fill-opacity="1"/><rect x="-37.5" width="450" fill="#ffffff" y="-37.499999" height="449.999989" fill-opacity="1"/><g fill="#040337" fill-opacity="1"><g transform="translate(93.585937, 186.121073)"><g><path d="M 10.21875 -15.546875 C 8.738281 -15.546875 7.59375 -14.988281 6.78125 -13.875 C 5.96875 -12.769531 5.5625 -11.222656 5.5625 -9.234375 C 5.5625 -5.085938 7.113281 -3.015625 10.21875 -3.015625 C 11.519531 -3.015625 13.097656 -3.34375 14.953125 -4 L 14.953125 -0.703125 C 13.429688 -0.0664062 11.734375 0.25 9.859375 0.25 C 7.148438 0.25 5.082031 -0.566406 3.65625 -2.203125 C 2.226562 -3.835938 1.515625 -6.1875 1.515625 -9.25 C 1.515625 -11.1875 1.863281 -12.878906 2.5625 -14.328125 C 3.269531 -15.773438 4.28125 -16.882812 5.59375 -17.65625 C 6.90625 -18.4375 8.445312 -18.828125 10.21875 -18.828125 C 12.019531 -18.828125 13.832031 -18.390625 15.65625 -17.515625 L 14.390625 -14.328125 C 13.691406 -14.648438 12.988281 -14.929688 12.28125 -15.171875 C 11.582031 -15.421875 10.894531 -15.546875 10.21875 -15.546875 Z M 10.21875 -15.546875 "/></g></g></g><g fill="#040337" fill-opacity="1"><g transform="translate(110.14834, 186.121073)"><g><path d="M 5.109375 -7.125 C 5.109375 -5.71875 5.335938 -4.65625 5.796875 -3.9375 C 6.265625 -3.21875 7.019531 -2.859375 8.0625 -2.859375 C 9.09375 -2.859375 9.832031 -3.210938 10.28125 -3.921875 C 10.738281 -4.640625 10.96875 -5.707031 10.96875 -7.125 C 10.96875 -8.53125 10.738281 -9.582031 10.28125 -10.28125 C 9.820312 -10.988281 9.070312 -11.34375 8.03125 -11.34375 C 7 -11.34375 6.253906 -10.992188 5.796875 -10.296875 C 5.335938 -9.597656 5.109375 -8.539062 5.109375 -7.125 Z M 14.9375 -7.125 C 14.9375 -4.8125 14.328125 -3.003906 13.109375 -1.703125 C 11.890625 -0.398438 10.191406 0.25 8.015625 0.25 C 6.648438 0.25 5.445312 -0.046875 4.40625 -0.640625 C 3.363281 -1.234375 2.5625 -2.085938 2 -3.203125 C 1.445312 -4.328125 1.171875 -5.632812 1.171875 -7.125 C 1.171875 -9.4375 1.773438 -11.234375 2.984375 -12.515625 C 4.191406 -13.804688 5.894531 -14.453125 8.09375 -14.453125 C 9.445312 -14.453125 10.644531 -14.15625 11.6875 -13.5625 C 12.726562 -12.976562 13.53125 -12.128906 14.09375 -11.015625 C 14.65625 -9.910156 14.9375 -8.613281 14.9375 -7.125 Z M 14.9375 -7.125 "/></g></g></g><g fill="#040337" fill-opacity="1"><g transform="translate(126.241158, 186.121073)"><g><path d="M 9.875 -11.28125 L 6.53125 -11.28125 L 6.53125 0 L 2.65625 0 L 2.65625 -11.28125 L 0.515625 -11.28125 L 0.515625 -13.15625 L 2.65625 -14.1875 L 2.65625 -15.234375 C 2.65625 -16.847656 3.050781 -18.023438 3.84375 -18.765625 C 4.644531 -19.515625 5.921875 -19.890625 7.671875 -19.890625 C 9.003906 -19.890625 10.191406 -19.691406 11.234375 -19.296875 L 10.25 -16.453125 C 9.46875 -16.703125 8.75 -16.828125 8.09375 -16.828125 C 7.539062 -16.828125 7.140625 -16.660156 6.890625 -16.328125 C 6.648438 -16.003906 6.53125 -15.585938 6.53125 -15.078125 L 6.53125 -14.1875 L 9.875 -14.1875 Z M 9.875 -11.28125 "/></g></g></g><g fill="#040337" fill-opacity="1"><g transform="translate(136.305515, 186.121073)"><g><path d="M 9.875 -11.28125 L 6.53125 -11.28125 L 6.53125 0 L 2.65625 0 L 2.65625 -11.28125 L 0.515625 -11.28125 L 0.515625 -13.15625 L 2.65625 -14.1875 L 2.65625 -15.234375 C 2.65625 -16.847656 3.050781 -18.023438 3.84375 -18.765625 C 4.644531 -19.515625 5.921875 -19.890625 7.671875 -19.890625 C 9.003906 -19.890625 10.191406 -19.691406 11.234375 -19.296875 L 10.25 -16.453125 C 9.46875 -16.703125 8.75 -16.828125 8.09375 -16.828125 C 7.539062 -16.828125 7.140625 -16.660156 6.890625 -16.328125 C 6.648438 -16.003906 6.53125 -15.585938 6.53125 -15.078125 L 6.53125 -14.1875 L 9.875 -14.1875 Z M 9.875 -11.28125 "/></g></g></g><g fill="#040337" fill-opacity="1"><g transform="translate(146.369872, 186.121073)"><g><path d="M 7.90625 -11.703125 C 7.082031 -11.703125 6.4375 -11.441406 5.96875 -10.921875 C 5.507812 -10.398438 5.25 -9.660156 5.1875 -8.703125 L 10.609375 -8.703125 C 10.597656 -9.660156 10.347656 -10.398438 9.859375 -10.921875 C 9.378906 -11.441406 8.726562 -11.703125 7.90625 -11.703125 Z M 8.453125 0.25 C 6.171875 0.25 4.382812 -0.378906 3.09375 -1.640625 C 1.8125 -2.898438 1.171875 -4.6875 1.171875 -7 C 1.171875 -9.375 1.765625 -11.207031 2.953125 -12.5 C 4.140625 -13.800781 5.785156 -14.453125 7.890625 -14.453125 C 9.890625 -14.453125 11.445312 -13.878906 12.5625 -12.734375 C 13.6875 -11.597656 14.25 -10.023438 14.25 -8.015625 L 14.25 -6.125 L 5.09375 -6.125 C 5.132812 -5.03125 5.457031 -4.171875 6.0625 -3.546875 C 6.675781 -2.929688 7.535156 -2.625 8.640625 -2.625 C 9.492188 -2.625 10.300781 -2.710938 11.0625 -2.890625 C 11.820312 -3.066406 12.613281 -3.351562 13.4375 -3.75 L 13.4375 -0.75 C 12.757812 -0.40625 12.035156 -0.15625 11.265625 0 C 10.503906 0.164062 9.566406 0.25 8.453125 0.25 Z M 8.453125 0.25 "/></g></g></g><g fill="#040337" fill-opacity="1"><g transform="translate(161.726583, 186.121073)"><g><path d="M 7.90625 -11.703125 C 7.082031 -11.703125 6.4375 -11.441406 5.96875 -10.921875 C 5.507812 -10.398438 5.25 -9.660156 5.1875 -8.703125 L 10.609375 -8.703125 C 10.597656 -9.660156 10.347656 -10.398438 9.859375 -10.921875 C 9.378906 -11.441406 8.726562 -11.703125 7.90625 -11.703125 Z M 8.453125 0.25 C 6.171875 0.25 4.382812 -0.378906 3.09375 -1.640625 C 1.8125 -2.898438 1.171875 -4.6875 1.171875 -7 C 1.171875 -9.375 1.765625 -11.207031 2.953125 -12.5 C 4.140625 -13.800781 5.785156 -14.453125 7.890625 -14.453125 C 9.890625 -14.453125 11.445312 -13.878906 12.5625 -12.734375 C 13.6875 -11.597656 14.25 -10.023438 14.25 -8.015625 L 14.25 -6.125 L 5.09375 -6.125 C 5.132812 -5.03125 5.457031 -4.171875 6.0625 -3.546875 C 6.675781 -2.929688 7.535156 -2.625 8.640625 -2.625 C 9.492188 -2.625 10.300781 -2.710938 11.0625 -2.890625 C 11.820312 -3.066406 12.613281 -3.351562 13.4375 -3.75 L 13.4375 -0.75 C 12.757812 -0.40625 12.035156 -0.15625 11.265625 0 C 10.503906 0.164062 9.566406 0.25 8.453125 0.25 Z M 8.453125 0.25 "/></g></g></g><g fill="#040337" fill-opacity="1"><g transform="translate(177.083294, 186.121073)"><g/></g></g><g fill="#040337" fill-opacity="1"><g transform="translate(183.835171, 186.121073)"><g><path d="M 19.5 0 L 14.71875 0 L 13.25 -1.4375 C 11.632812 -0.3125 9.804688 0.25 7.765625 0.25 C 5.703125 0.25 4.066406 -0.222656 2.859375 -1.171875 C 1.648438 -2.117188 1.046875 -3.398438 1.046875 -5.015625 C 1.046875 -6.171875 1.300781 -7.15625 1.8125 -7.96875 C 2.320312 -8.789062 3.195312 -9.554688 4.4375 -10.265625 C 3.800781 -10.992188 3.335938 -11.691406 3.046875 -12.359375 C 2.765625 -13.023438 2.625 -13.75 2.625 -14.53125 C 2.625 -15.820312 3.117188 -16.859375 4.109375 -17.640625 C 5.097656 -18.429688 6.414062 -18.828125 8.0625 -18.828125 C 9.632812 -18.828125 10.890625 -18.457031 11.828125 -17.71875 C 12.773438 -16.988281 13.25 -16.015625 13.25 -14.796875 C 13.25 -13.785156 12.957031 -12.863281 12.375 -12.03125 C 11.789062 -11.195312 10.847656 -10.40625 9.546875 -9.65625 L 13.15625 -6.125 C 13.75 -7.125 14.269531 -8.398438 14.71875 -9.953125 L 18.75 -9.953125 C 18.445312 -8.804688 18.023438 -7.691406 17.484375 -6.609375 C 16.953125 -5.523438 16.347656 -4.5625 15.671875 -3.71875 Z M 5.109375 -5.390625 C 5.109375 -4.660156 5.378906 -4.078125 5.921875 -3.640625 C 6.472656 -3.210938 7.175781 -3 8.03125 -3 C 9.101562 -3 10.066406 -3.253906 10.921875 -3.765625 L 6.703125 -7.953125 C 6.210938 -7.585938 5.820312 -7.203125 5.53125 -6.796875 C 5.25 -6.390625 5.109375 -5.921875 5.109375 -5.390625 Z M 9.671875 -14.390625 C 9.671875 -14.835938 9.519531 -15.1875 9.21875 -15.4375 C 8.914062 -15.695312 8.519531 -15.828125 8.03125 -15.828125 C 7.46875 -15.828125 7.019531 -15.691406 6.6875 -15.421875 C 6.363281 -15.148438 6.203125 -14.765625 6.203125 -14.265625 C 6.203125 -13.523438 6.609375 -12.707031 7.421875 -11.8125 C 8.140625 -12.21875 8.691406 -12.613281 9.078125 -13 C 9.472656 -13.394531 9.671875 -13.859375 9.671875 -14.390625 Z M 9.671875 -14.390625 "/></g></g></g><g fill="#040337" fill-opacity="1"><g transform="translate(203.332023, 186.121073)"><g/></g></g><g fill="#040337" fill-opacity="1"><g transform="translate(90.210937, 219.254693)"><g><path d="M 13.328125 0 L 7.484375 -19.046875 L 7.34375 -19.046875 C 7.550781 -15.171875 7.65625 -12.585938 7.65625 -11.296875 L 7.65625 0 L 3.0625 0 L 3.0625 -24.265625 L 10.0625 -24.265625 L 15.8125 -5.71875 L 15.90625 -5.71875 L 22 -24.265625 L 29 -24.265625 L 29 0 L 24.203125 0 L 24.203125 -11.484375 C 24.203125 -12.023438 24.207031 -12.648438 24.21875 -13.359375 C 24.238281 -14.066406 24.316406 -15.953125 24.453125 -19.015625 L 24.3125 -19.015625 L 18.046875 0 Z M 13.328125 0 "/></g></g></g><g fill="#040337" fill-opacity="1"><g transform="translate(122.264874, 219.254693)"><g><path d="M 17.03125 0 L 3.0625 0 L 3.0625 -24.265625 L 17.03125 -24.265625 L 17.03125 -20.0625 L 8.203125 -20.0625 L 8.203125 -14.71875 L 16.421875 -14.71875 L 16.421875 -10.515625 L 8.203125 -10.515625 L 8.203125 -4.25 L 17.03125 -4.25 Z M 17.03125 0 "/></g></g></g><g fill="#040337" fill-opacity="1"><g transform="translate(141.304684, 219.254693)"><g><path d="M 23.1875 -12.375 C 23.1875 -8.375 22.050781 -5.3125 19.78125 -3.1875 C 17.507812 -1.0625 14.222656 0 9.921875 0 L 3.0625 0 L 3.0625 -24.265625 L 10.671875 -24.265625 C 14.640625 -24.265625 17.71875 -23.21875 19.90625 -21.125 C 22.09375 -19.039062 23.1875 -16.125 23.1875 -12.375 Z M 17.84375 -12.234375 C 17.84375 -17.453125 15.539062 -20.0625 10.9375 -20.0625 L 8.203125 -20.0625 L 8.203125 -4.25 L 10.40625 -4.25 C 15.363281 -4.25 17.84375 -6.910156 17.84375 -12.234375 Z M 17.84375 -12.234375 "/></g></g></g><g fill="#040337" fill-opacity="1"><g transform="translate(166.469759, 219.254693)"><g><path d="M 3.0625 0 L 3.0625 -24.265625 L 8.203125 -24.265625 L 8.203125 0 Z M 3.0625 0 "/></g></g></g><g fill="#040337" fill-opacity="1"><g transform="translate(177.724324, 219.254693)"><g><path d="M 13.359375 -20.34375 C 11.421875 -20.34375 9.921875 -19.613281 8.859375 -18.15625 C 7.796875 -16.695312 7.265625 -14.664062 7.265625 -12.0625 C 7.265625 -6.65625 9.296875 -3.953125 13.359375 -3.953125 C 15.066406 -3.953125 17.132812 -4.378906 19.5625 -5.234375 L 19.5625 -0.90625 C 17.5625 -0.0820312 15.335938 0.328125 12.890625 0.328125 C 9.359375 0.328125 6.65625 -0.738281 4.78125 -2.875 C 2.90625 -5.019531 1.96875 -8.097656 1.96875 -12.109375 C 1.96875 -14.628906 2.425781 -16.835938 3.34375 -18.734375 C 4.269531 -20.628906 5.59375 -22.082031 7.3125 -23.09375 C 9.03125 -24.113281 11.046875 -24.625 13.359375 -24.625 C 15.722656 -24.625 18.09375 -24.050781 20.46875 -22.90625 L 18.8125 -18.734375 C 17.90625 -19.160156 16.988281 -19.535156 16.0625 -19.859375 C 15.144531 -20.179688 14.242188 -20.34375 13.359375 -20.34375 Z M 13.359375 -20.34375 "/></g></g></g><g fill="#040337" fill-opacity="1"><g transform="translate(199.386879, 219.254693)"><g><path d="M 17.90625 0 L 16.15625 -5.78125 L 7.3125 -5.78125 L 5.546875 0 L 0 0 L 8.5625 -24.375 L 14.859375 -24.375 L 23.453125 0 Z M 14.921875 -10.09375 C 13.296875 -15.332031 12.378906 -18.289062 12.171875 -18.96875 C 11.972656 -19.65625 11.828125 -20.203125 11.734375 -20.609375 C 11.367188 -19.191406 10.320312 -15.6875 8.59375 -10.09375 Z M 14.921875 -10.09375 "/></g></g></g><g fill="#040337" fill-opacity="1"><g transform="translate(222.842196, 219.254693)"><g><path d="M 3.0625 0 L 3.0625 -24.265625 L 8.203125 -24.265625 L 8.203125 -4.25 L 18.046875 -4.25 L 18.046875 0 Z M 3.0625 0 "/></g></g></g><g fill="#040337" fill-opacity="1"><g transform="translate(242.048001, 219.254693)"><g/></g></g><g fill="#040337" fill-opacity="1"><g transform="translate(250.879017, 219.254693)"><g><path d="M 13.359375 -20.34375 C 11.421875 -20.34375 9.921875 -19.613281 8.859375 -18.15625 C 7.796875 -16.695312 7.265625 -14.664062 7.265625 -12.0625 C 7.265625 -6.65625 9.296875 -3.953125 13.359375 -3.953125 C 15.066406 -3.953125 17.132812 -4.378906 19.5625 -5.234375 L 19.5625 -0.90625 C 17.5625 -0.0820312 15.335938 0.328125 12.890625 0.328125 C 9.359375 0.328125 6.65625 -0.738281 4.78125 -2.875 C 2.90625 -5.019531 1.96875 -8.097656 1.96875 -12.109375 C 1.96875 -14.628906 2.425781 -16.835938 3.34375 -18.734375 C 4.269531 -20.628906 5.59375 -22.082031 7.3125 -23.09375 C 9.03125 -24.113281 11.046875 -24.625 13.359375 -24.625 C 15.722656 -24.625 18.09375 -24.050781 20.46875 -22.90625 L 18.8125 -18.734375 C 17.90625 -19.160156 16.988281 -19.535156 16.0625 -19.859375 C 15.144531 -20.179688 14.242188 -20.34375 13.359375 -20.34375 Z M 13.359375 -20.34375 "/></g></g></g><g fill="#040337" fill-opacity="1"><g transform="translate(272.541572, 219.254693)"><g><path d="M 17.90625 0 L 16.15625 -5.78125 L 7.3125 -5.78125 L 5.546875 0 L 0 0 L 8.5625 -24.375 L 14.859375 -24.375 L 23.453125 0 Z M 14.921875 -10.09375 C 13.296875 -15.332031 12.378906 -18.289062 12.171875 -18.96875 C 11.972656 -19.65625 11.828125 -20.203125 11.734375 -20.609375 C 11.367188 -19.191406 10.320312 -15.6875 8.59375 -10.09375 Z M 14.921875 -10.09375 "/></g></g></g><g fill="#040337" fill-opacity="1"><g transform="translate(295.996889, 219.254693)"><g><path d="M 8.203125 -13.5 L 9.859375 -13.5 C 11.484375 -13.5 12.679688 -13.769531 13.453125 -14.3125 C 14.234375 -14.851562 14.625 -15.707031 14.625 -16.875 C 14.625 -18.019531 14.226562 -18.835938 13.4375 -19.328125 C 12.644531 -19.816406 11.421875 -20.0625 9.765625 -20.0625 L 8.203125 -20.0625 Z M 8.203125 -9.3125 L 8.203125 0 L 3.0625 0 L 3.0625 -24.265625 L 10.125 -24.265625 C 13.425781 -24.265625 15.867188 -23.664062 17.453125 -22.46875 C 19.035156 -21.269531 19.828125 -19.445312 19.828125 -17 C 19.828125 -15.570312 19.429688 -14.300781 18.640625 -13.1875 C 17.859375 -12.070312 16.75 -11.203125 15.3125 -10.578125 C 18.957031 -5.117188 21.335938 -1.59375 22.453125 0 L 16.734375 0 L 10.9375 -9.3125 Z M 8.203125 -9.3125 "/></g></g></g><g fill="#040337" fill-opacity="1"><g transform="translate(318.439621, 219.254693)"><g><path d="M 17.03125 0 L 3.0625 0 L 3.0625 -24.265625 L 17.03125 -24.265625 L 17.03125 -20.0625 L 8.203125 -20.0625 L 8.203125 -14.71875 L 16.421875 -14.71875 L 16.421875 -10.515625 L 8.203125 -10.515625 L 8.203125 -4.25 L 17.03125 -4.25 Z M 17.03125 0 "/></g></g></g><path stroke-linecap="butt" transform="matrix(0.749995, 0.00258787, -0.00258787, 0.749995, 59.598809, 227.104687)" fill="none" stroke-linejoin="miter" d="M 0.000158773 2.001054 L 289.814403 2.001053 " stroke="#040337" stroke-width="4" stroke-opacity="1" stroke-miterlimit="4"/><path stroke-linecap="butt" transform="matrix(0.75, 0, 0, 0.75, 210.105459, 176.371073)" fill="none" stroke-linejoin="miter" d="M 0.0000133959 2.000028 L 165.317733 2.000028 " stroke="#040337" stroke-width="4" stroke-opacity="1" stroke-miterlimit="4"/><path fill="#040337" d="M 76.625 222.699219 C 76.617188 221.917969 76.726562 221.203125 76.878906 221.105469 C 77.230469 220.882812 77.257812 223.148438 76.90625 223.703125 C 76.722656 224 76.640625 223.714844 76.625 222.699219 Z M 71.683594 221.03125 C 71.90625 220.882812 72.375 220.757812 72.722656 220.75 C 73.769531 220.730469 76.0625 219.601562 77.992188 218.160156 C 79.960938 216.6875 81 215.019531 81.3125 212.804688 C 81.660156 210.382812 80.464844 207.976562 78.632812 207.421875 C 78.164062 207.277344 78.078125 207.015625 78.0625 205.632812 C 78.042969 203.726562 78.148438 203.683594 80.167969 204.8125 C 82.023438 205.847656 83.695312 207.898438 84.085938 209.625 C 84.433594 211.152344 84.183594 213.65625 83.523438 215.296875 C 82.644531 217.472656 79.613281 219.632812 75.789062 220.816406 C 74.15625 221.324219 70.996094 221.488281 71.683594 221.03125 Z M 76.441406 216.535156 C 76.351562 215.746094 76.179688 212.273438 76.058594 208.816406 C 75.933594 205.359375 75.738281 200.648438 75.617188 198.347656 L 75.394531 194.164062 L 76.570312 194.238281 L 77.746094 194.308594 L 77.710938 196.632812 C 77.695312 197.910156 77.585938 200.804688 77.46875 203.058594 C 77.351562 205.316406 77.207031 209.59375 77.144531 212.5625 C 77.03125 217.867188 76.765625 219.367188 76.441406 216.535156 Z M 71.644531 206.417969 C 67.15625 205.492188 64.773438 203.355469 64.1875 199.71875 C 63.929688 198.140625 64.78125 195.378906 65.984375 193.882812 C 67.769531 191.667969 71.113281 190.332031 75.832031 189.949219 C 79.84375 189.625 82.5625 188.738281 84.097656 187.25 C 84.835938 186.539062 85.480469 185.085938 85.460938 184.183594 C 85.441406 183.234375 84.421875 181.25 83.574219 180.507812 C 82.777344 179.8125 79.757812 178.296875 79.179688 178.304688 C 78.945312 178.304688 78.832031 177.789062 78.820312 176.628906 L 78.800781 174.953125 L 80.324219 175.113281 C 85.03125 175.609375 89.15625 178.441406 90.117188 181.839844 C 91.320312 186.082031 88.507812 190.410156 83.375 192.210938 C 82.273438 192.597656 80.128906 192.984375 77.699219 193.238281 C 74.703125 193.550781 73.460938 193.804688 72.367188 194.320312 C 69.773438 195.542969 68.351562 198.324219 69.351562 200.210938 C 70.15625 201.71875 71.65625 202.570312 74.960938 203.394531 C 75.1875 203.449219 75.3125 204.039062 75.324219 205.125 L 75.34375 206.773438 L 74.320312 206.765625 C 73.753906 206.757812 72.550781 206.601562 71.644531 206.414062 Z M 75.566406 188.953125 C 75.386719 188.394531 75.070312 181.523438 74.75 171.179688 L 74.457031 161.683594 L 76.730469 161.65625 L 79 161.632812 L 78.875 164.84375 C 78.328125 178.78125 78.054688 185.046875 77.90625 186.925781 L 77.734375 189.117188 L 76.710938 189.210938 C 76.039062 189.277344 75.640625 189.183594 75.566406 188.953125 Z M 71.1875 178.488281 C 66.382812 177.882812 62.652344 175.980469 60.667969 173.125 C 60.277344 172.5625 59.746094 171.199219 59.488281 170.089844 C 58.6875 166.679688 59.335938 164.300781 61.75 161.769531 C 65.019531 158.34375 68.191406 157.535156 80.09375 157.09375 C 82.949219 156.988281 85.507812 156.832031 85.773438 156.742188 C 86.042969 156.652344 87.03125 156.9375 87.96875 157.371094 C 88.90625 157.808594 90.074219 158.246094 90.5625 158.34375 C 91.835938 158.597656 91.691406 159.199219 90.304688 159.425781 C 88.542969 159.714844 88.230469 160.015625 89.183594 160.503906 L 89.980469 160.914062 L 89.183594 161.230469 C 87.707031 161.816406 86.160156 161.882812 83.828125 161.457031 C 80.742188 160.898438 73.523438 160.714844 71.394531 161.140625 C 68.371094 161.75 65.34375 163.78125 64.332031 165.882812 C 63.5 167.613281 64.328125 170.578125 66.101562 172.222656 C 67.507812 173.523438 69.945312 174.421875 72.3125 174.511719 L 74.445312 174.589844 L 74.386719 176.542969 L 74.332031 178.496094 L 73.101562 178.535156 C 72.425781 178.558594 71.5625 178.535156 71.1875 178.488281 Z M 87.628906 158.523438 C 87.625 158.375 87.449219 158.253906 87.230469 158.253906 C 87.015625 158.257812 86.761719 158.382812 86.671875 158.535156 C 86.582031 158.6875 86.757812 158.808594 87.070312 158.804688 C 87.378906 158.800781 87.628906 158.675781 87.628906 158.523438 Z M 90.289062 160.054688 C 90.359375 159.9375 91.183594 159.859375 92.113281 159.882812 C 93.046875 159.90625 93.9375 159.84375 94.09375 159.746094 C 94.253906 159.644531 94.382812 159.738281 94.386719 159.953125 C 94.390625 160.257812 93.949219 160.332031 92.277344 160.304688 C 91.113281 160.285156 90.21875 160.175781 90.289062 160.054688 Z M 74.320312 155.539062 C 74.183594 154.863281 73.867188 154.433594 73.214844 154.039062 C 71.132812 152.785156 72.023438 150.203125 74.8125 149.40625 C 77.257812 148.710938 79.234375 149.125 80.40625 150.578125 C 81.300781 151.6875 81.171875 152.835938 79.996094 154.242188 C 79.441406 154.90625 79.027344 155.671875 79.074219 155.945312 C 79.15625 156.386719 78.929688 156.4375 76.835938 156.464844 L 74.507812 156.492188 Z M 74.320312 155.539062 " fill-opacity="1" fill-rule="nonzero"/><g clip-path="url(#2e5afdffd1)"><path stroke-linecap="butt" transform="matrix(0.121433, 0.0725983, -0.0725983, 0.121433, 73.93002, 140.744595)" fill="none" stroke-linejoin="miter" d="M 313.593574 487.415659 C 310.712635 482.704423 308.783484 477.971018 309.353507 476.826031 C 310.678755 474.200159 319.061914 487.845743 318.940922 492.485933 C 318.903869 494.952853 317.37197 493.520431 313.593574 487.415659 Z M 277.566168 495.218831 C 278.378573 493.510752 280.768949 491.052295 282.849723 489.743973 C 289.129911 485.828537 298.946085 470.663407 305.424941 454.920047 C 312.027434 438.845427 312.281451 424.957829 306.144186 410.387726 C 299.469313 394.434127 283.490457 384.171566 270.364346 387.451127 C 266.996397 388.274432 265.525807 386.998365 260.415645 378.665994 C 253.383312 367.172278 253.867309 366.529073 270.213572 366.053046 C 285.224499 365.603315 302.805232 371.98091 311.437147 381.038592 C 319.085833 389.043528 326.650674 405.14059 328.596176 417.488034 C 331.155574 433.875477 320.600781 457.974539 301.693394 479.025182 C 293.629491 488.028007 275.052967 500.484998 277.566168 495.218831 Z M 290.123122 450.68632 C 286.716193 446.22521 273.07839 425.781192 259.80533 405.247786 C 246.508572 384.728548 228.237417 356.857316 219.158 343.338476 L 202.633601 318.765628 L 210.035843 314.951406 L 217.423917 311.113486 L 225.640426 325.341221 C 230.178477 333.147092 240.013213 351.103901 247.477048 365.202598 C 254.95505 379.324991 269.591876 405.798353 279.980172 424.035409 C 298.532689 456.627965 302.361637 466.691347 290.123122 450.68632 Z M 224.327773 406.706817 C 193.741185 417.369127 171.535752 413.048704 154.790932 393.111154 C 147.503117 384.472288 142.652677 364.62934 144.525383 351.189404 C 147.322211 331.278073 162.76222 311.045843 190.000798 291.608855 C 213.162579 275.091691 226.440218 259.851548 230.355578 245.254752 C 232.255949 238.264044 230.895707 227.110768 227.504476 221.707401 C 223.943232 216.01966 210.560892 207.678921 202.726591 206.250721 C 195.370375 204.922716 171.554857 206.679589 168.07591 208.823806 C 166.654038 209.673869 164.096662 206.956615 159.817757 199.960854 L 153.621319 189.865311 L 163.44436 185.311515 C 193.79958 171.249049 229.096111 173.468891 247.251696 190.600771 C 269.936773 211.97299 268.572141 248.430972 243.96447 277.97206 C 238.684278 284.313443 227.076757 294.437606 213.25759 304.790285 C 196.214749 317.55275 189.599731 323.598444 184.834469 330.693521 C 173.533585 347.518312 174.994976 369.548236 187.904633 377.367367 C 198.25513 383.596192 210.443669 383.321923 233.481445 376.336285 C 235.054269 375.846328 237.951926 378.971338 241.961643 385.51684 L 248.058908 395.446498 L 241.821733 399.111043 C 238.357208 401.117966 230.491559 404.533707 224.313606 406.683119 Z M 184.776577 286.529305 C 181.660492 283.792226 154.819958 243.255277 115.360628 181.665099 L 79.141577 125.118182 L 92.834557 116.706687 L 106.518007 108.333059 L 117.405536 128.266066 C 164.638237 214.803507 185.7044 253.806612 191.618551 265.743656 L 198.523933 279.661534 L 192.655119 283.942224 C 188.819938 286.781934 186.062731 287.658292 184.776577 286.529305 Z M 120.255972 238.924747 C 88.91161 252.677867 59.380478 254.667176 36.985367 244.541239 C 32.575431 242.545519 24.40799 236.201775 18.820301 230.406652 C 1.593826 212.622803 -3.100467 195.838966 2.364131 171.727107 C 9.774155 139.085708 26.084099 122.676068 96.690524 76.829187 C 113.631131 65.832746 128.58652 55.604979 129.872117 54.096524 C 131.181412 52.573901 138.211213 50.719413 145.471316 49.949624 C 152.745586 49.203533 161.41803 47.621547 164.734455 46.443029 C 173.380858 43.364716 174.685865 47.538391 167.094853 53.942406 C 157.455529 62.085686 156.650614 65.043838 164.203856 64.549148 L 170.525829 64.14721 L 166.839051 68.95695 C 160.006417 77.867025 150.862916 83.880303 135.171013 89.755361 C 114.423722 97.559061 69.964196 122.627196 58.593143 132.931667 C 42.461164 147.594343 31.462534 170.897208 32.947018 187.316094 C 34.175671 200.831968 49.952912 215.815088 66.676348 219.359745 C 79.925425 222.150755 97.971464 218.760609 112.658224 210.720025 L 125.880609 203.458411 L 132.608998 215.519856 L 139.361084 227.567134 L 132.037936 232.266942 C 128.023213 234.860144 122.700979 237.849021 120.255972 238.924747 Z M 147.589077 58.173084 C 147.027007 57.286733 145.521404 57.189646 144.194324 57.983038 C 142.905109 58.78596 141.818115 60.465193 141.825605 61.715267 C 141.833095 62.965341 143.338698 63.062428 145.220359 61.905313 C 147.078322 60.762365 148.141618 59.0973 147.589077 58.173084 Z M 169.281063 57.814432 C 169.282593 56.848477 173.999487 53.385132 179.724584 50.155404 C 185.473379 46.911507 190.649807 43.302103 191.243529 42.142948 C 191.84678 40.945927 192.968835 41.047141 193.771757 42.336356 C 194.900536 44.170621 192.491865 46.221832 182.250007 52.119728 C 175.117207 56.223218 169.293701 58.804084 169.281063 57.814432 Z M 56.026339 88.337319 C 52.745899 84.73346 49.267924 83.27428 43.879443 83.246804 C 26.700648 83.191183 22.738901 64.296659 36.768959 49.346549 C 49.081965 36.259341 62.57486 31.602451 74.954607 36.167741 C 84.405047 39.653526 87.788326 47.088231 85.755647 59.883942 C 84.799062 65.924394 85.063961 72.070952 86.340075 73.559789 C 88.438682 75.940125 87.248386 77.069925 74.645508 84.829704 L 60.620758 93.439547 Z M 56.026339 88.337319 " stroke="#000000" stroke-width="2" stroke-opacity="1" stroke-miterlimit="4"/></g></svg>